<svg width="126" height="43" viewBox="0 0 126 43" fill="none" xmlns="http://www.w3.org/2000/svg">
<rect x="0.5" y="0.5" width="125" height="41.05" rx="7.5" fill="#EFF2FC"/>
<rect x="0.5" y="0.5" width="125" height="41.05" rx="7.5" stroke="#131022"/>
<g clip-path="url(#clip0_20005129_1431)">
<g clip-path="url(#clip1_20005129_1431)">
<g clip-path="url(#clip2_20005129_1431)">
<path d="M31.4866 20.2101C31.4866 17.5613 33.7279 16.2709 33.7958 16.203C32.5054 14.3693 30.5358 14.1655 29.8566 14.0976C28.2266 13.8938 26.5966 15.0484 25.7137 15.0484C24.8308 15.0484 23.5404 14.0976 22.1141 14.0976C20.2804 14.0976 18.5825 15.1163 17.6996 16.7463C15.7979 20.0063 17.2241 24.7605 19.0579 27.3413C20.0087 28.6318 21.0275 30.058 22.4537 29.9901C23.8121 29.9222 24.3554 29.1072 25.9854 29.1072C27.6154 29.1072 28.0908 29.9901 29.5171 29.9222C31.0112 29.9222 31.8941 28.6318 32.7771 27.3413C33.8637 25.8472 34.2712 24.4209 34.2712 24.353C34.3391 24.4209 31.4866 23.4022 31.4866 20.2101Z" fill="#3E4265"/>
<path d="M28.77 12.3997C29.5171 11.5168 29.9925 10.2943 29.8566 9.00391C28.77 9.07182 27.4796 9.75099 26.6646 10.6339C25.9854 11.381 25.3741 12.6714 25.51 13.8939C26.7325 13.9618 28.0229 13.2827 28.77 12.3997Z" fill="#3E4265"/>
<path d="M51.3183 29.8543H49.4166L48.3979 26.6622H44.6625L43.6437 29.8543H41.7421L45.3416 18.9197H47.5829L51.3183 29.8543ZM47.9904 25.3038L47.0396 22.4513C46.9716 22.1797 46.7679 21.5005 46.4962 20.4138C46.3604 20.8893 46.2246 21.5684 45.9529 22.4513L45.0021 25.3038H47.9904Z" fill="#3E4265"/>
<path d="M60.6229 25.8472C60.6229 27.2056 60.2833 28.2243 59.5363 29.0393C58.8571 29.7185 58.0421 30.058 57.0233 30.058C55.9367 30.058 55.1896 29.6506 54.7142 28.9035V33.0464H52.8804V24.5568C52.8804 23.7418 52.8804 22.8589 52.8125 21.976H54.3746L54.4425 23.1985C55.0538 22.2476 55.9367 21.7722 57.1592 21.7722C58.11 21.7722 58.925 22.1118 59.5363 22.8589C60.2833 23.6739 60.6229 24.6247 60.6229 25.8472ZM58.7892 25.9151C58.7892 25.1681 58.5854 24.4889 58.2458 24.0135C57.8383 23.4701 57.3629 23.2664 56.6838 23.2664C56.2083 23.2664 55.8688 23.4022 55.4613 23.6739C55.1217 23.9455 54.85 24.3531 54.7821 24.8285C54.7142 25.0322 54.7142 25.236 54.7142 25.3718V26.6622C54.7142 27.2055 54.9179 27.7489 55.2575 28.0885C55.5971 28.496 56.0725 28.6997 56.6838 28.6997C57.3629 28.6997 57.9062 28.4281 58.2458 27.9526C58.5854 27.4093 58.7892 26.7301 58.7892 25.9151Z" fill="#3E4265"/>
<path d="M69.9275 25.8472C69.9275 27.2056 69.5879 28.2243 68.8408 29.0393C68.1616 29.7185 67.3467 30.058 66.3279 30.058C65.2412 30.058 64.4942 29.6506 64.0187 28.9035V33.0464H62.185V24.5568C62.185 23.7418 62.185 22.8589 62.1171 21.976H63.6792L63.7471 23.1985C64.3583 22.2476 65.2412 21.7722 66.4637 21.7722C67.4146 21.7722 68.2296 22.1118 68.8408 22.8589C69.5879 23.6739 69.9275 24.6247 69.9275 25.8472ZM68.0937 25.9151C68.0937 25.1681 67.89 24.4889 67.5504 24.0135C67.1429 23.4701 66.6675 23.2664 65.9883 23.2664C65.5129 23.2664 65.1733 23.4022 64.7658 23.6739C64.4262 23.9455 64.1546 24.3531 64.0866 24.8285C64.0187 25.0322 64.0187 25.236 64.0187 25.3718V26.6622C64.0187 27.2055 64.2225 27.7489 64.5621 28.0885C64.9017 28.496 65.3771 28.6997 65.9883 28.6997C66.6675 28.6997 67.2108 28.4281 67.5504 27.9526C67.89 27.4093 68.0937 26.7301 68.0937 25.9151Z" fill="#3E4265"/>
<path d="M80.3866 26.7979C80.3866 27.7488 80.0471 28.4959 79.3679 29.1071C78.6208 29.7184 77.6021 30.0579 76.3116 30.0579C75.0891 30.0579 74.1383 29.8542 73.3912 29.3788L73.7987 27.8846C74.6137 28.36 75.4287 28.5638 76.3796 28.5638C77.0587 28.5638 77.6021 28.4279 77.9416 28.0884C78.3492 27.8167 78.485 27.4092 78.485 26.8659C78.485 26.3904 78.3491 26.0509 78.0096 25.7113C77.67 25.4396 77.1946 25.1 76.4475 24.8963C74.4779 24.1492 73.5271 23.1304 73.5271 21.7721C73.5271 20.8892 73.8666 20.1421 74.5458 19.5309C75.225 18.9875 76.1758 18.6479 77.3304 18.6479C78.3491 18.6479 79.2321 18.8517 79.9112 19.1913L79.4358 20.6175C78.8246 20.2779 78.0775 20.1421 77.2625 20.1421C76.6512 20.1421 76.1079 20.2779 75.7683 20.6175C75.4967 20.8892 75.2929 21.2288 75.2929 21.6363C75.2929 22.0438 75.4967 22.4513 75.8362 22.7229C76.1079 22.9946 76.6512 23.2663 77.4662 23.5379C78.4171 23.9454 79.1642 24.3529 79.5717 24.8963C80.115 25.3717 80.3866 26.0509 80.3866 26.7979Z" fill="#3E4265"/>
<path d="M86.2954 23.2663H84.3258V27.1375C84.3258 28.0883 84.6654 28.6317 85.3445 28.6317C85.6841 28.6317 85.9558 28.6317 86.1595 28.5638L86.2275 29.9221C85.8879 30.0579 85.4125 30.1258 84.8012 30.1258C84.122 30.1258 83.5108 29.9221 83.1033 29.5146C82.6958 29.1071 82.492 28.36 82.492 27.4092V23.4021H81.3375V22.1117H82.492V20.6854L84.2579 20.1421V22.1117H86.2275V23.2663H86.2954Z" fill="#3E4265"/>
<path d="M95.2604 25.8472C95.2604 27.0697 94.9208 28.0884 94.1737 28.8355C93.4266 29.6505 92.4079 30.058 91.1854 30.058C89.9629 30.058 89.08 29.6505 88.3329 28.9034C87.6537 28.1563 87.2462 27.1376 87.2462 25.983C87.2462 24.7605 87.5858 23.7418 88.3329 22.9947C89.08 22.2476 90.0308 21.8401 91.2533 21.8401C92.4758 21.8401 93.4266 22.2476 94.1058 22.9947C94.9208 23.6738 95.2604 24.6926 95.2604 25.8472ZM93.4266 25.9151C93.4266 25.168 93.2908 24.5568 92.9512 24.0134C92.5437 23.4022 92.0004 23.0626 91.3212 23.0626C90.5741 23.0626 90.0308 23.4022 89.6912 24.0134C89.3516 24.5568 89.2158 25.168 89.2158 25.9151C89.2158 26.6622 89.3516 27.2734 89.6912 27.8168C90.0987 28.428 90.642 28.7676 91.3212 28.7676C92.0004 28.7676 92.5437 28.428 92.9512 27.8168C93.2229 27.2734 93.4266 26.6622 93.4266 25.9151Z" fill="#3E4265"/>
<path d="M101.101 23.5381C100.897 23.5381 100.762 23.4701 100.558 23.4701C99.9466 23.4701 99.4033 23.6739 99.0637 24.1493C98.7921 24.5568 98.5883 25.1001 98.5883 25.7114V29.8543H96.7546V24.421C96.7546 23.538 96.7546 22.6551 96.6866 21.908H98.2487L98.3166 23.4022H98.3846C98.5883 22.8589 98.86 22.4514 99.2675 22.1797C99.675 21.9081 100.082 21.7722 100.558 21.7722C100.694 21.7722 100.897 21.7722 101.033 21.7722V23.5381H101.101Z" fill="#3E4265"/>
<path d="M109.183 25.5754C109.183 25.9149 109.183 26.1866 109.115 26.3904H103.682C103.682 27.1374 103.954 27.7487 104.497 28.1562C104.972 28.4958 105.516 28.6995 106.263 28.6995C107.078 28.6995 107.825 28.5637 108.436 28.292L108.708 29.5145C107.961 29.8541 107.01 29.9899 105.991 29.9899C104.701 29.9899 103.75 29.6504 103.003 28.9033C102.256 28.1562 101.916 27.2054 101.916 25.9829C101.916 24.7604 102.256 23.8095 102.935 22.9945C103.614 22.1795 104.565 21.7041 105.787 21.7041C106.942 21.7041 107.825 22.1116 108.436 22.9945C108.912 23.7416 109.183 24.5566 109.183 25.5754ZM107.485 25.0999C107.485 24.5566 107.35 24.1491 107.146 23.7416C106.806 23.2662 106.331 22.9945 105.72 22.9945C105.108 22.9945 104.633 23.2662 104.293 23.7416C104.022 24.1491 103.818 24.5566 103.75 25.0999H107.485Z" fill="#3E4265"/>
<path d="M47.3792 12.1959C47.3792 13.1467 47.1075 13.8938 46.4962 14.3692C45.9529 14.8446 45.1379 15.0484 44.1192 15.0484C43.6437 15.0484 43.1683 15.0484 42.8287 14.9805V9.68295C43.3042 9.61504 43.7796 9.54712 44.3229 9.54712C45.2737 9.54712 46.0208 9.75087 46.4962 10.1584C47.1075 10.6338 47.3792 11.313 47.3792 12.1959ZM46.4962 12.1959C46.4962 11.5846 46.2925 11.1092 45.9529 10.7696C45.6133 10.43 45.1379 10.2942 44.4587 10.2942C44.1871 10.2942 43.9154 10.2942 43.7117 10.3621V14.3692C43.8475 14.3692 44.0512 14.3692 44.3229 14.3692C45.0021 14.3692 45.5454 14.1655 45.885 13.8259C46.2925 13.4184 46.4962 12.875 46.4962 12.1959Z" fill="#3E4265"/>
<path d="M52.3371 13.0108C52.3371 13.622 52.1333 14.0975 51.7937 14.505C51.4541 14.9125 50.9108 15.1162 50.3675 15.1162C49.7562 15.1162 49.3487 14.9125 48.9412 14.5729C48.6016 14.1654 48.3979 13.69 48.3979 13.1466C48.3979 12.5354 48.6016 12.06 48.9412 11.6525C49.2808 11.245 49.7562 11.1091 50.3675 11.1091C50.9787 11.1091 51.4541 11.3129 51.7937 11.6525C52.2012 11.9241 52.3371 12.3995 52.3371 13.0108ZM51.4541 13.0108C51.4541 12.6712 51.3862 12.3316 51.2504 12.06C51.0466 11.7204 50.775 11.5845 50.4354 11.5845C50.0958 11.5845 49.8241 11.7204 49.6204 12.06C49.4846 12.3316 49.4166 12.6033 49.4166 13.0108C49.4166 13.3504 49.4846 13.69 49.6204 13.9616C49.8241 14.3012 50.0958 14.437 50.4354 14.437C50.775 14.437 51.0466 14.3012 51.2504 13.9616C51.3862 13.69 51.4541 13.4183 51.4541 13.0108Z" fill="#3E4265"/>
<path d="M58.9929 11.1091L57.7704 14.9804H56.9554L56.4121 13.2825C56.2762 12.875 56.2083 12.4675 56.0725 12.06C56.0046 12.4675 55.8687 12.875 55.7329 13.2825L55.1896 14.9804H54.3746L53.22 11.1091H54.1029L54.5783 12.9429C54.7141 13.3504 54.7821 13.8258 54.85 14.1654C54.9179 13.8258 55.0537 13.4183 55.1896 12.9429L55.7329 11.1091H56.48L57.0233 12.9429C57.1591 13.4183 57.2271 13.8258 57.3629 14.2333C57.4308 13.8258 57.4987 13.4183 57.6346 12.9429L58.11 11.1091H58.9929Z" fill="#3E4265"/>
<path d="M63.6112 14.9804H62.7283V12.7392C62.7283 12.06 62.4566 11.7204 61.9133 11.7204C61.6416 11.7204 61.4379 11.7883 61.302 11.9921C61.1662 12.1958 61.0304 12.3996 61.0304 12.6713V14.9804H60.1475V12.1958C60.1475 11.8563 60.1475 11.5167 60.1475 11.1092H60.8945L60.9625 11.7204C61.0983 11.5167 61.2341 11.3808 61.4379 11.245C61.7095 11.1092 61.9133 11.0413 62.2529 11.0413C62.5925 11.0413 62.932 11.1771 63.2037 11.3808C63.5433 11.6525 63.6791 12.1279 63.6791 12.6713V14.9804H63.6112Z" fill="#3E4265"/>
<path d="M66.0563 14.9803H65.1733V9.34326H66.0563V14.9803Z" fill="#3E4265"/>
<path d="M71.2179 13.0108C71.2179 13.622 71.0142 14.0975 70.6746 14.505C70.335 14.9125 69.7917 15.1162 69.2483 15.1162C68.6371 15.1162 68.2296 14.9125 67.8221 14.5729C67.4825 14.1654 67.2787 13.69 67.2787 13.1466C67.2787 12.5354 67.4825 12.06 67.8221 11.6525C68.1617 11.245 68.6371 11.1091 69.2483 11.1091C69.8596 11.1091 70.335 11.3129 70.6746 11.6525C71.0821 11.9241 71.2179 12.3995 71.2179 13.0108ZM70.335 13.0108C70.335 12.6712 70.2671 12.3316 70.1312 12.06C69.9275 11.7204 69.6558 11.5845 69.3162 11.5845C68.9767 11.5845 68.705 11.7204 68.5012 12.06C68.3654 12.3316 68.2975 12.6033 68.2975 13.0108C68.2975 13.3504 68.3654 13.69 68.5012 13.9616C68.705 14.3012 68.9767 14.437 69.3162 14.437C69.6558 14.437 69.9275 14.3012 70.1312 13.9616C70.2671 13.69 70.335 13.4183 70.335 13.0108Z" fill="#3E4265"/>
<path d="M75.4966 14.9804H74.6816L74.6137 14.505C74.3421 14.8446 73.9346 15.0483 73.4591 15.0483C73.0516 15.0483 72.78 14.9125 72.5762 14.7088C72.3725 14.505 72.2366 14.2333 72.2366 13.8938C72.2366 13.4183 72.4404 13.0788 72.8479 12.8071C73.2554 12.5354 73.7987 12.4675 74.5458 12.4675V12.3996C74.5458 11.8563 74.2741 11.6525 73.7308 11.6525C73.3233 11.6525 72.9837 11.7204 72.7121 11.9242L72.5083 11.3808C72.8479 11.1771 73.3233 11.0413 73.8666 11.0413C74.8854 11.0413 75.4287 11.5846 75.4287 12.6713V14.0975C75.4966 14.4371 75.4966 14.7767 75.4966 14.9804ZM74.6137 13.6221V13.0788C73.6629 13.0788 73.1196 13.3504 73.1196 13.8938C73.1196 14.0975 73.1875 14.2333 73.3233 14.3692C73.4591 14.505 73.595 14.505 73.7308 14.505C73.9346 14.505 74.1383 14.4371 74.2741 14.3013C74.41 14.1654 74.5458 14.0296 74.6137 13.8258C74.6137 13.7579 74.6137 13.69 74.6137 13.6221Z" fill="#3E4265"/>
<path d="M80.5904 14.9803H79.7754L79.7075 14.3691C79.4358 14.8445 79.0283 15.0483 78.417 15.0483C77.9416 15.0483 77.5341 14.9124 77.2625 14.5049C76.9229 14.1653 76.787 13.6899 76.787 13.0787C76.787 12.4674 76.9908 11.9241 77.3304 11.5845C77.67 11.2449 78.0775 11.0412 78.5529 11.0412C79.0962 11.0412 79.4358 11.2449 79.7075 11.5845V9.34326H80.5904V13.9616C80.5225 14.3012 80.5225 14.6408 80.5904 14.9803ZM79.6395 13.3503V12.6712C79.6395 12.5353 79.6395 12.4674 79.6395 12.3995C79.5716 12.1958 79.4358 12.0599 79.3 11.9241C79.1641 11.7883 78.9604 11.7203 78.6887 11.7203C78.3491 11.7203 78.0775 11.8562 77.9416 12.1278C77.7379 12.3995 77.67 12.7391 77.67 13.0787C77.67 13.4862 77.7379 13.7578 77.9416 14.0295C78.1454 14.3012 78.417 14.437 78.6887 14.437C78.9604 14.437 79.232 14.3012 79.3679 14.0974C79.5716 13.8258 79.6395 13.622 79.6395 13.3503Z" fill="#3E4265"/>
<path d="M88.1292 13.0108C88.1292 13.622 87.9254 14.0975 87.5858 14.505C87.2463 14.9125 86.7029 15.1162 86.1596 15.1162C85.5483 15.1162 85.1408 14.9125 84.7333 14.5729C84.3938 14.1654 84.19 13.69 84.19 13.1466C84.19 12.5354 84.3938 12.06 84.7333 11.6525C85.0729 11.245 85.5483 11.1091 86.1596 11.1091C86.7708 11.1091 87.2463 11.3129 87.5858 11.6525C87.9933 11.9241 88.1292 12.3995 88.1292 13.0108ZM87.2463 13.0108C87.2463 12.6712 87.1783 12.3316 87.0425 12.06C86.8388 11.7204 86.5671 11.5845 86.2275 11.5845C85.8879 11.5845 85.6163 11.7204 85.4125 12.06C85.2767 12.3316 85.2088 12.6033 85.2088 13.0108C85.2088 13.3504 85.2767 13.69 85.4125 13.9616C85.6163 14.3012 85.8879 14.437 86.2275 14.437C86.5671 14.437 86.8388 14.3012 87.0425 13.9616C87.1104 13.69 87.2463 13.4183 87.2463 13.0108Z" fill="#3E4265"/>
<path d="M92.8833 14.9804H92.0004V12.7392C92.0004 12.06 91.7287 11.7204 91.1854 11.7204C90.9137 11.7204 90.71 11.7883 90.5741 11.9921C90.4383 12.1958 90.3025 12.3996 90.3025 12.6713V14.9804H89.4196V12.1958C89.4196 11.8563 89.4196 11.5167 89.4196 11.1092H90.1666L90.2346 11.7204C90.3704 11.5167 90.5062 11.3808 90.71 11.245C90.9816 11.1092 91.1854 11.0413 91.525 11.0413C91.8646 11.0413 92.2041 11.1771 92.4758 11.3808C92.8154 11.6525 92.9512 12.1279 92.9512 12.6713V14.9804H92.8833Z" fill="#3E4265"/>
<path d="M98.86 11.7206H97.9092V13.6222C97.9092 14.0977 98.1129 14.3693 98.4525 14.3693C98.5883 14.3693 98.7242 14.3693 98.86 14.3014V14.9806C98.6562 15.0485 98.4525 15.0485 98.1808 15.0485C97.8412 15.0485 97.5696 14.9127 97.3658 14.7089C97.1621 14.5052 97.0942 14.1656 97.0942 13.6902V11.7206H96.4829V11.0414H97.0942V10.3622L97.9771 10.0906V11.0414H98.9279L98.86 11.7206Z" fill="#3E4265"/>
<path d="M103.546 14.9803H102.663V12.807C102.663 12.1278 102.392 11.7883 101.848 11.7883C101.441 11.7883 101.169 11.992 101.033 12.3995C101.033 12.4674 100.965 12.6033 100.965 12.7391V15.0483H100.082V9.34326H100.965V11.6524C101.237 11.2449 101.645 11.0412 102.188 11.0412C102.527 11.0412 102.867 11.177 103.071 11.3808C103.342 11.6524 103.546 12.1278 103.546 12.6712V14.9803Z" fill="#3E4265"/>
<path d="M108.368 12.875C108.368 13.0108 108.368 13.1467 108.368 13.2825H105.72C105.72 13.69 105.855 13.9617 106.127 14.1654C106.331 14.3692 106.67 14.4371 107.01 14.4371C107.417 14.4371 107.757 14.3692 108.097 14.2333L108.232 14.8446C107.825 14.9804 107.417 15.1163 106.874 15.1163C106.263 15.1163 105.787 14.9125 105.448 14.5729C105.108 14.2333 104.905 13.7579 104.905 13.1467C104.905 12.5354 105.04 12.06 105.38 11.6525C105.72 11.245 106.195 11.0413 106.806 11.0413C107.35 11.0413 107.825 11.245 108.097 11.6525C108.232 11.9921 108.368 12.3996 108.368 12.875ZM107.553 12.6033C107.553 12.3317 107.485 12.1279 107.35 11.9242C107.214 11.6525 106.942 11.5846 106.67 11.5846C106.399 11.5846 106.127 11.7204 105.991 11.9242C105.855 12.1279 105.787 12.3317 105.72 12.6033H107.553Z" fill="#3E4265"/>
</g>
</g>
</g>
<defs>
<clipPath id="clip0_20005129_1431">
<rect width="92.4" height="24.45" fill="white" transform="translate(16.8 8.80005)"/>
</clipPath>
<clipPath id="clip1_20005129_1431">
<rect width="92.4" height="24.45" fill="white" transform="translate(16.8 8.80005)"/>
</clipPath>
<clipPath id="clip2_20005129_1431">
<rect width="92.3667" height="24.45" fill="white" transform="translate(16.8167 8.80005)"/>
</clipPath>
</defs>
</svg>
