<svg width="138" height="43" viewBox="0 0 138 43" fill="none" xmlns="http://www.w3.org/2000/svg">
<rect x="0.5" y="0.5" width="137" height="41.16" rx="7.5" fill="#EFF2FC"/>
<rect x="0.5" y="0.5" width="137" height="41.16" rx="7.5" stroke="#131022"/>
<g clip-path="url(#clip0_20005129_1458)">
<g clip-path="url(#clip1_20005129_1458)">
<g clip-path="url(#clip2_20005129_1458)">
<path d="M50.9637 11.87C50.9637 12.6375 50.7335 13.1748 50.273 13.6353C49.7357 14.1725 49.1217 14.4028 48.2775 14.4028C47.51 14.4028 46.8192 14.1725 46.282 13.6353C45.7447 13.098 45.4377 12.484 45.4377 11.7165C45.4377 10.949 45.7447 10.2583 46.282 9.79777C46.8192 9.26052 47.51 9.03027 48.2775 9.03027C48.6612 9.03027 49.045 9.10702 49.352 9.26052C49.7357 9.41402 49.966 9.56752 50.1962 9.87452L49.8125 10.1815C49.4287 9.72102 48.9682 9.56752 48.3542 9.56752C47.817 9.56752 47.2797 9.79777 46.896 10.1815C46.5122 10.5653 46.282 11.1025 46.282 11.7165C46.282 12.3305 46.5122 12.8678 46.896 13.2515C47.2797 13.6353 47.817 13.8655 48.3542 13.8655C48.9682 13.8655 49.4287 13.6353 49.8892 13.2515C50.1195 13.0213 50.273 12.6375 50.3497 12.177H48.431V11.4095H51.0405C50.9637 11.563 50.9637 11.7165 50.9637 11.87Z" fill="#3E4265"/>
<path d="M55.1082 9.64427H52.6522V11.3328H54.878V11.9468H52.6522V13.6353H55.1082V14.2493H51.9615V9.03027H55.1082V9.64427Z" fill="#3E4265"/>
<path d="M58.0248 14.2493H57.334V9.64427H55.799V9.03027H59.483V9.64427H57.948V14.2493H58.0248Z" fill="#3E4265"/>
<path d="M62.1693 14.2493V9.03027H62.86V14.2493H62.1693Z" fill="#3E4265"/>
<path d="M65.93 14.2493H65.2393V9.64427H63.7043V9.03027H67.465V9.64427H65.93V14.2493Z" fill="#3E4265"/>
<path d="M74.4492 13.5586C73.912 14.0959 73.298 14.3261 72.4537 14.3261C71.6862 14.3261 70.9955 14.0959 70.4582 13.5586C69.921 13.0214 69.6907 12.4074 69.6907 11.6399C69.6907 10.8724 69.921 10.2584 70.4582 9.72111C70.9955 9.18386 71.6095 8.95361 72.4537 8.95361C73.2212 8.95361 73.912 9.18386 74.4492 9.72111C74.9865 10.2584 75.2167 10.8724 75.2167 11.6399C75.2167 12.4074 74.9865 13.0214 74.4492 13.5586ZM70.9955 13.0981C71.3792 13.4819 71.9165 13.7121 72.4537 13.7121C72.991 13.7121 73.5282 13.4819 73.912 13.0981C74.2957 12.7144 74.526 12.1771 74.526 11.5631C74.526 10.9491 74.2957 10.4119 73.912 10.0281C73.5282 9.64436 72.991 9.41411 72.4537 9.41411C71.8397 9.41411 71.3792 9.64436 70.9955 10.0281C70.6117 10.4119 70.3815 10.9491 70.3815 11.5631C70.3815 12.2539 70.6117 12.7144 70.9955 13.0981Z" fill="#3E4265"/>
<path d="M76.2145 14.2493V9.03027H77.0588L79.6683 13.098V12.1003V9.03027H80.359V14.2493H79.6683L76.9053 9.95127V10.949V14.2493H76.2145Z" fill="#3E4265"/>
<path d="M69.5372 21.9243C67.465 21.9243 65.6997 23.4593 65.6997 25.6083C65.6997 27.7573 67.3882 29.2923 69.5372 29.2923C71.6095 29.2923 73.3747 27.6805 73.3747 25.6083C73.3747 23.4593 71.6095 21.9243 69.5372 21.9243ZM69.5372 27.9108C68.386 27.9108 67.3882 26.9898 67.3882 25.685C67.3882 24.3803 68.386 23.4593 69.5372 23.4593C70.6885 23.4593 71.6862 24.3803 71.6862 25.685C71.6862 26.913 70.6885 27.9108 69.5372 27.9108ZM61.1715 21.9243C59.0992 21.9243 57.334 23.4593 57.334 25.6083C57.334 27.7573 59.0225 29.2923 61.1715 29.2923C63.2437 29.2923 65.009 27.6805 65.009 25.6083C65.009 23.4593 63.3205 21.9243 61.1715 21.9243ZM61.1715 27.9108C60.0202 27.9108 59.0225 26.9898 59.0225 25.685C59.0225 24.3803 60.0202 23.4593 61.1715 23.4593C62.3227 23.4593 63.3205 24.3803 63.3205 25.685C63.3205 26.913 62.3227 27.9108 61.1715 27.9108ZM51.2707 23.0755V24.6873H55.1082C55.0315 25.6083 54.7245 26.2223 54.264 26.6828C53.7267 27.22 52.8057 27.834 51.2707 27.834C48.8915 27.834 47.0495 25.992 47.0495 23.6128C47.0495 21.2335 48.8915 19.3915 51.2707 19.3915C52.5755 19.3915 53.4965 19.852 54.1872 20.5428L55.3385 19.3915C54.3407 18.4705 53.1127 17.7798 51.2707 17.7798C47.9705 17.7798 45.2842 20.3893 45.2842 23.536C45.2842 26.6828 48.0472 29.2923 51.2707 29.2923C53.036 29.2923 54.3407 28.755 55.4152 27.6805C56.4897 26.606 56.7967 25.1478 56.7967 23.9965C56.7967 23.6128 56.7967 23.3058 56.72 22.9988H51.2707V23.0755ZM91.8715 24.3035C91.5645 23.4593 90.5667 21.9243 88.5712 21.9243C86.5757 21.9243 84.964 23.4593 84.964 25.6083C84.964 27.6805 86.5757 29.2923 88.7247 29.2923C90.49 29.2923 91.4877 28.2178 91.8715 27.6805L90.5667 26.8363C90.1062 27.4503 89.569 27.834 88.7247 27.834C87.8805 27.834 87.2665 27.4503 86.8827 26.6828L91.9482 24.6105L91.8715 24.3035ZM86.6525 25.5315C86.5757 24.0733 87.8037 23.3825 88.648 23.3825C89.3387 23.3825 89.876 23.6895 90.0295 24.15L86.6525 25.5315ZM82.508 29.1388H84.1965V18.1635H82.508V29.1388ZM79.745 22.7685C79.2845 22.308 78.5937 21.9243 77.6727 21.9243C75.754 21.9243 73.9887 23.536 73.9887 25.685C73.9887 27.7573 75.754 29.369 77.6727 29.369C78.5937 29.369 79.2845 28.9853 79.6682 28.5248H79.745V29.062C79.745 30.5203 78.9775 31.211 77.7495 31.211C76.7517 31.211 76.061 30.5203 75.8307 29.9063L74.3725 30.4435C74.7562 31.4413 75.9075 32.6693 77.7495 32.6693C79.745 32.6693 81.3567 31.518 81.3567 28.8318V22.1545H79.745V22.7685ZM77.8262 27.9108C76.675 27.9108 75.6772 26.9898 75.6772 25.685C75.6772 24.3803 76.675 23.3825 77.8262 23.3825C78.9775 23.3825 79.8985 24.3035 79.8985 25.685C79.8985 26.913 78.9775 27.9108 77.8262 27.9108ZM99.7 18.1635H95.709V29.062H97.3975V24.9175H99.7C101.542 24.9175 103.384 23.6128 103.384 21.5405C103.384 19.4683 101.542 18.1635 99.7 18.1635ZM99.7 23.4593H97.3207V19.6985H99.7C100.928 19.6985 101.695 20.6963 101.695 21.5405C101.695 22.4615 101.005 23.4593 99.7 23.4593ZM110.061 21.8475C108.833 21.8475 107.605 22.3848 107.068 23.536L108.526 24.15C108.833 23.536 109.447 23.3825 110.061 23.3825C110.905 23.3825 111.826 23.9198 111.826 24.764V24.9175C111.519 24.764 110.905 24.457 110.061 24.457C108.449 24.457 106.838 25.3013 106.838 26.913C106.838 28.3713 108.142 29.2923 109.601 29.2923C110.752 29.2923 111.366 28.8318 111.75 28.2178H111.826V29.062H113.438V24.9175C113.438 22.9988 111.98 21.8475 110.061 21.8475ZM109.831 27.9108C109.294 27.9108 108.526 27.6805 108.526 26.9898C108.526 26.1455 109.447 25.8385 110.291 25.8385C111.059 25.8385 111.366 25.992 111.826 26.2223C111.673 27.1433 110.829 27.9108 109.831 27.9108ZM119.348 22.1545L117.429 26.913H117.352L115.357 22.1545H113.592L116.585 28.755L114.896 32.439H116.662L121.267 22.1545H119.348ZM104.305 29.1388H105.993V18.1635H104.305V29.1388Z" fill="#3E4265"/>
<path d="M17.1937 9.49072C16.9635 9.72097 16.81 10.1815 16.81 10.7187V30.0597C16.81 30.597 16.9635 31.0575 17.1937 31.2877L17.2705 31.3645L28.3992 20.5427V20.3125L17.1937 9.49072Z" fill="url(#paint0_linear_20005129_1458)"/>
<path d="M32.0833 24.0734L28.3993 20.4662V20.2359L32.0833 16.6287L32.16 16.7054L36.5348 19.1614C37.7628 19.8522 37.7628 21.0034 36.5348 21.6942L32.16 24.0734H32.0833Z" fill="url(#paint1_linear_20005129_1458)"/>
<path d="M32.16 24.0734L28.3993 20.3894L17.1938 31.2879C17.6543 31.6717 18.345 31.7484 19.1125 31.2879L32.16 24.0734Z" fill="url(#paint2_linear_20005129_1458)"/>
<path d="M32.16 16.7054L19.1125 9.41413C18.345 9.03038 17.6543 9.03038 17.1938 9.49088L28.3225 20.3894L32.16 16.7054Z" fill="url(#paint3_linear_20005129_1458)"/>
</g>
</g>
</g>
<defs>
<linearGradient id="paint0_linear_20005129_1458" x1="27.2935" y1="30.3519" x2="12.6219" y2="15.3248" gradientUnits="userSpaceOnUse">
<stop stop-color="#00A0FF"/>
<stop offset="0.0066" stop-color="#00A1FF"/>
<stop offset="0.2601" stop-color="#00BEFF"/>
<stop offset="0.5122" stop-color="#00D2FF"/>
<stop offset="0.7604" stop-color="#00DFFF"/>
<stop offset="1" stop-color="#00E3FF"/>
</linearGradient>
<linearGradient id="paint1_linear_20005129_1458" x1="38.1828" y1="20.3706" x2="16.5105" y2="20.3706" gradientUnits="userSpaceOnUse">
<stop stop-color="#FFE000"/>
<stop offset="0.4087" stop-color="#FFBD00"/>
<stop offset="0.7754" stop-color="#FFA500"/>
<stop offset="1" stop-color="#FF9C00"/>
</linearGradient>
<linearGradient id="paint2_linear_20005129_1458" x1="22.6904" y1="25.612" x2="2.79453" y2="5.23404" gradientUnits="userSpaceOnUse">
<stop stop-color="#FF3A44"/>
<stop offset="1" stop-color="#C31162"/>
</linearGradient>
<linearGradient id="paint3_linear_20005129_1458" x1="7.36738" y1="30.8265" x2="16.2518" y2="21.7268" gradientUnits="userSpaceOnUse">
<stop stop-color="#32A071"/>
<stop offset="0.0685" stop-color="#2DA771"/>
<stop offset="0.4762" stop-color="#15CF74"/>
<stop offset="0.8009" stop-color="#06E775"/>
<stop offset="1" stop-color="#00F076"/>
</linearGradient>
<clipPath id="clip0_20005129_1458">
<rect width="104.4" height="24.56" fill="white" transform="translate(16.8 8.80005)"/>
</clipPath>
<clipPath id="clip1_20005129_1458">
<rect width="104.4" height="24.56" fill="white" transform="translate(16.8 8.80005)"/>
</clipPath>
<clipPath id="clip2_20005129_1458">
<rect width="104.38" height="24.56" fill="white" transform="translate(16.81 8.80005)"/>
</clipPath>
</defs>
</svg>
