<svg width="367" height="51" viewBox="0 0 367 51" fill="none" xmlns="http://www.w3.org/2000/svg">
<rect x="0.5" y="0.909973" width="365.4" height="49.3" rx="7.5" fill="#EFF2FC"/>
<rect x="0.5" y="0.909973" width="365.4" height="49.3" rx="7.5" stroke="#131022"/>
<g clip-path="url(#clip0_20005128_14179)">
<g clip-path="url(#clip1_20005128_14179)">
<g clip-path="url(#clip2_20005128_14179)">
<path d="M150.286 13.2974C150.286 14.3193 149.979 15.0346 149.366 15.6478C148.651 16.3631 147.833 16.6696 146.709 16.6696C145.688 16.6696 144.768 16.3631 144.053 15.6478C143.337 14.9324 142.928 14.1149 142.928 13.0931C142.928 12.0712 143.337 11.1515 144.053 10.5384C144.768 9.82307 145.688 9.51651 146.709 9.51651C147.22 9.51651 147.731 9.6187 148.14 9.82307C148.651 10.0274 148.958 10.2318 149.264 10.6406L148.753 11.0493C148.242 10.4362 147.629 10.2318 146.812 10.2318C146.096 10.2318 145.381 10.5384 144.87 11.0493C144.359 11.5603 144.053 12.2756 144.053 13.0931C144.053 13.9106 144.359 14.6259 144.87 15.1368C145.381 15.6478 146.096 15.9543 146.812 15.9543C147.629 15.9543 148.242 15.6478 148.855 15.1368C149.162 14.8303 149.366 14.3193 149.468 13.7062H146.914V12.6843H150.388C150.286 12.8887 150.286 13.0931 150.286 13.2974Z" fill="#3E4265"/>
<path d="M155.804 10.334H152.534V12.5821H155.498V13.3996H152.534V15.6478H155.804V16.4653H151.614V9.51651H155.804V10.334Z" fill="#3E4265"/>
<path d="M159.687 16.4653H158.768V10.334H156.724V9.51651H161.629V10.334H159.585V16.4653H159.687Z" fill="#3E4265"/>
<path d="M165.205 16.4653V9.51651H166.125V16.4653H165.205Z" fill="#3E4265"/>
<path d="M170.212 16.4653H169.293V10.334H167.249V9.51651H172.256V10.334H170.212V16.4653Z" fill="#3E4265"/>
<path d="M181.555 15.5456C180.84 16.2609 180.023 16.5675 178.898 16.5675C177.877 16.5675 176.957 16.2609 176.242 15.5456C175.526 14.8303 175.22 14.0128 175.22 12.9909C175.22 11.969 175.526 11.1515 176.242 10.4362C176.957 9.7209 177.774 9.41434 178.898 9.41434C179.92 9.41434 180.84 9.7209 181.555 10.4362C182.271 11.1515 182.577 11.969 182.577 12.9909C182.577 14.0128 182.271 14.8303 181.555 15.5456ZM176.957 14.9325C177.468 15.4434 178.183 15.75 178.898 15.75C179.614 15.75 180.329 15.4434 180.84 14.9325C181.351 14.4215 181.658 13.7062 181.658 12.8887C181.658 12.0712 181.351 11.3559 180.84 10.845C180.329 10.334 179.614 10.0275 178.898 10.0275C178.081 10.0275 177.468 10.334 176.957 10.845C176.446 11.3559 176.139 12.0712 176.139 12.8887C176.139 13.8084 176.446 14.4215 176.957 14.9325Z" fill="#3E4265"/>
<path d="M183.906 16.4653V9.51651H185.03L188.504 14.9324V13.604V9.51651H189.424V16.4653H188.504L184.825 10.7428V12.0712V16.4653H183.906Z" fill="#3E4265"/>
<path d="M175.015 26.684C172.256 26.684 169.906 28.7278 169.906 31.589C169.906 34.4503 172.154 36.494 175.015 36.494C177.774 36.494 180.125 34.3481 180.125 31.589C180.125 28.7278 177.774 26.684 175.015 26.684ZM175.015 34.6546C173.483 34.6546 172.154 33.4284 172.154 31.6912C172.154 29.954 173.483 28.7278 175.015 28.7278C176.548 28.7278 177.877 29.954 177.877 31.6912C177.877 33.3262 176.548 34.6546 175.015 34.6546ZM163.877 26.684C161.118 26.684 158.768 28.7278 158.768 31.589C158.768 34.4503 161.016 36.494 163.877 36.494C166.636 36.494 168.986 34.3481 168.986 31.589C168.986 28.7278 166.738 26.684 163.877 26.684ZM163.877 34.6546C162.344 34.6546 161.016 33.4284 161.016 31.6912C161.016 29.954 162.344 28.7278 163.877 28.7278C165.41 28.7278 166.738 29.954 166.738 31.6912C166.738 33.3262 165.41 34.6546 163.877 34.6546ZM150.695 28.2168V30.3628H155.804C155.702 31.589 155.293 32.4065 154.68 33.0196C153.965 33.735 152.738 34.5525 150.695 34.5525C147.527 34.5525 145.074 32.1 145.074 28.9321C145.074 25.7643 147.527 23.3118 150.695 23.3118C152.432 23.3118 153.658 23.925 154.578 24.8446L156.111 23.3118C154.782 22.0856 153.147 21.1659 150.695 21.1659C146.301 21.1659 142.724 24.6403 142.724 28.83C142.724 33.0196 146.403 36.494 150.695 36.494C153.045 36.494 154.782 35.7787 156.213 34.3481C157.643 32.9175 158.052 30.9759 158.052 29.4431C158.052 28.9321 158.052 28.5234 157.95 28.1146H150.695V28.2168ZM204.752 29.8518C204.343 28.7278 203.015 26.684 200.358 26.684C197.701 26.684 195.555 28.7278 195.555 31.589C195.555 34.3481 197.701 36.494 200.562 36.494C202.913 36.494 204.241 35.0634 204.752 34.3481L203.015 33.224C202.402 34.0415 201.686 34.5525 200.562 34.5525C199.438 34.5525 198.621 34.0415 198.11 33.0196L204.854 30.2606L204.752 29.8518ZM197.803 31.4868C197.701 29.5453 199.336 28.6256 200.46 28.6256C201.38 28.6256 202.095 29.0343 202.299 29.6475L197.803 31.4868ZM192.285 36.2896H194.533V21.6768H192.285V36.2896ZM188.606 27.8081C187.993 27.195 187.074 26.684 185.847 26.684C183.293 26.684 180.942 28.83 180.942 31.6912C180.942 34.4503 183.293 36.5962 185.847 36.5962C187.074 36.5962 187.993 36.0853 188.504 35.4721H188.606V36.1875C188.606 38.129 187.584 39.0487 185.949 39.0487C184.621 39.0487 183.701 38.129 183.395 37.3115L181.453 38.0268C181.964 39.3553 183.497 40.9903 185.949 40.9903C188.606 40.9903 190.752 39.4575 190.752 35.8809V26.9906H188.606V27.8081ZM186.052 34.6546C184.519 34.6546 183.19 33.4284 183.19 31.6912C183.19 29.954 184.519 28.6256 186.052 28.6256C187.584 28.6256 188.811 29.8518 188.811 31.6912C188.811 33.3262 187.584 34.6546 186.052 34.6546ZM215.175 21.6768H209.861V36.1875H212.109V30.6693H215.175C217.628 30.6693 220.08 28.9321 220.08 26.1731C220.08 23.414 217.628 21.6768 215.175 21.6768ZM215.175 28.7278H212.007V23.7206H215.175C216.81 23.7206 217.832 25.049 217.832 26.1731C217.832 27.3993 216.912 28.7278 215.175 28.7278ZM228.97 26.5818C227.335 26.5818 225.7 27.2971 224.985 28.83L226.927 29.6475C227.335 28.83 228.153 28.6256 228.97 28.6256C230.094 28.6256 231.321 29.3409 231.321 30.465V30.6693C230.912 30.465 230.094 30.0562 228.97 30.0562C226.824 30.0562 224.679 31.1803 224.679 33.3262C224.679 35.2678 226.416 36.494 228.357 36.494C229.89 36.494 230.708 35.8809 231.218 35.0634H231.321V36.1875H233.467V30.6693C233.467 28.1146 231.525 26.5818 228.97 26.5818ZM228.664 34.6546C227.948 34.6546 226.927 34.3481 226.927 33.4284C226.927 32.3043 228.153 31.8956 229.277 31.8956C230.299 31.8956 230.708 32.1 231.321 32.4065C231.116 33.6328 229.992 34.6546 228.664 34.6546ZM241.335 26.9906L238.78 33.3262H238.678L236.021 26.9906H233.671L237.656 35.7787L235.408 40.6837H237.759L243.89 26.9906H241.335ZM221.306 36.2896H223.554V21.6768H221.306V36.2896Z" fill="#3E4265"/>
<path d="M105.323 10.1296C105.017 10.4362 104.812 11.0493 104.812 11.7646V37.5159C104.812 38.2312 105.017 38.8443 105.323 39.1509L105.426 39.2531L120.243 24.8446V24.5381L105.323 10.1296Z" fill="url(#paint0_linear_20005128_14179)"/>
<path d="M125.148 29.5453L120.243 24.7425V24.4359L125.148 19.6331L125.25 19.7353L131.075 23.0053C132.71 23.925 132.71 25.4578 131.075 26.3775L125.25 29.5453H125.148Z" fill="url(#paint1_linear_20005128_14179)"/>
<path d="M125.25 29.5453L120.243 24.6403L105.323 39.1509C105.937 39.6618 106.856 39.764 107.878 39.1509L125.25 29.5453Z" fill="url(#paint2_linear_20005128_14179)"/>
<path d="M125.25 19.7353L107.878 10.0275C106.856 9.51652 105.937 9.51652 105.323 10.1296L120.141 24.6403L125.25 19.7353Z" fill="url(#paint3_linear_20005128_14179)"/>
</g>
</g>
</g>
<defs>
<linearGradient id="paint0_linear_20005128_14179" x1="118.771" y1="37.9049" x2="99.2363" y2="17.8973" gradientUnits="userSpaceOnUse">
<stop stop-color="#00A0FF"/>
<stop offset="0.0066" stop-color="#00A1FF"/>
<stop offset="0.2601" stop-color="#00BEFF"/>
<stop offset="0.5122" stop-color="#00D2FF"/>
<stop offset="0.7604" stop-color="#00DFFF"/>
<stop offset="1" stop-color="#00E3FF"/>
</linearGradient>
<linearGradient id="paint1_linear_20005128_14179" x1="133.269" y1="24.6152" x2="104.414" y2="24.6152" gradientUnits="userSpaceOnUse">
<stop stop-color="#FFE000"/>
<stop offset="0.4087" stop-color="#FFBD00"/>
<stop offset="0.7754" stop-color="#FFA500"/>
<stop offset="1" stop-color="#FF9C00"/>
</linearGradient>
<linearGradient id="paint2_linear_20005128_14179" x1="112.642" y1="31.5938" x2="86.1519" y2="4.4619" gradientUnits="userSpaceOnUse">
<stop stop-color="#FF3A44"/>
<stop offset="1" stop-color="#C31162"/>
</linearGradient>
<linearGradient id="paint3_linear_20005128_14179" x1="92.2403" y1="38.5365" x2="104.069" y2="26.421" gradientUnits="userSpaceOnUse">
<stop stop-color="#32A071"/>
<stop offset="0.0685" stop-color="#2DA771"/>
<stop offset="0.4762" stop-color="#15CF74"/>
<stop offset="0.8009" stop-color="#06E775"/>
<stop offset="1" stop-color="#00F076"/>
</linearGradient>
<clipPath id="clip0_20005128_14179">
<rect width="139" height="32.7" fill="white" transform="translate(104.8 9.20996)"/>
</clipPath>
<clipPath id="clip1_20005128_14179">
<rect width="139" height="32.7" fill="white" transform="translate(104.8 9.20996)"/>
</clipPath>
<clipPath id="clip2_20005128_14179">
<rect width="138.975" height="32.7" fill="white" transform="translate(104.812 9.20996)"/>
</clipPath>
</defs>
</svg>
