<svg width="367" height="51" viewBox="0 0 367 51" fill="none" xmlns="http://www.w3.org/2000/svg">
<rect x="0.5" y="0.5" width="365.4" height="49.41" rx="7.5" fill="#EFF2FC"/>
<rect x="0.5" y="0.5" width="365.4" height="49.41" rx="7.5" stroke="#131022"/>
<g clip-path="url(#clip0_20005128_14152)">
<g clip-path="url(#clip1_20005128_14152)">
<g clip-path="url(#clip2_20005128_14152)">
<path d="M124.512 24.1113C124.512 20.5569 127.519 18.8253 127.61 18.7341C125.879 16.2734 123.236 16 122.324 15.9088C120.137 15.6354 117.95 17.1848 116.765 17.1848C115.58 17.1848 113.848 15.9088 111.934 15.9088C109.474 15.9088 107.195 17.2759 106.01 19.4632C103.458 23.8379 105.372 30.2176 107.833 33.6809C109.109 35.4125 110.476 37.3265 112.39 37.2353C114.213 37.1442 114.942 36.0505 117.129 36.0505C119.317 36.0505 119.955 37.2353 121.869 37.1442C123.874 37.1442 125.058 35.4125 126.243 33.6809C127.701 31.6758 128.248 29.7619 128.248 29.6708C128.339 29.7619 124.512 28.3948 124.512 24.1113Z" fill="#3E4265"/>
<path d="M120.866 13.6303C121.868 12.4455 122.506 10.805 122.324 9.07339C120.866 9.16453 119.134 10.0759 118.041 11.2607C117.129 12.2633 116.309 13.9949 116.491 15.6354C118.132 15.7265 119.863 14.8151 120.866 13.6303Z" fill="#3E4265"/>
<path d="M151.124 37.053H148.572L147.205 32.7695H142.193L140.825 37.053H138.274L143.104 22.3797H146.112L151.124 37.053ZM146.658 30.9467L145.382 27.1189C145.291 26.7543 145.018 25.8429 144.653 24.3847C144.471 25.0227 144.289 25.9341 143.924 27.1189L142.648 30.9467H146.658Z" fill="#3E4265"/>
<path d="M163.61 31.6759C163.61 33.4986 163.154 34.8657 162.152 35.9594C161.241 36.8708 160.147 37.3265 158.78 37.3265C157.322 37.3265 156.319 36.7796 155.681 35.7771V41.3366H153.22V29.9442C153.22 28.8505 153.22 27.6657 153.129 26.4809H155.225L155.316 28.1214C156.137 26.8455 157.322 26.2075 158.962 26.2075C160.238 26.2075 161.332 26.6632 162.152 27.6657C163.154 28.7594 163.61 30.0354 163.61 31.6759ZM161.149 31.767C161.149 30.7645 160.876 29.8531 160.42 29.2151C159.873 28.486 159.235 28.2126 158.324 28.2126C157.686 28.2126 157.23 28.3949 156.684 28.7594C156.228 29.124 155.863 29.6708 155.772 30.3088C155.681 30.5822 155.681 30.8556 155.681 31.0379V32.7695C155.681 33.4986 155.954 34.2277 156.41 34.6834C156.866 35.2303 157.504 35.5037 158.324 35.5037C159.235 35.5037 159.965 35.1391 160.42 34.5012C160.876 33.772 161.149 32.8607 161.149 31.767Z" fill="#3E4265"/>
<path d="M176.096 31.6759C176.096 33.4986 175.641 34.8657 174.638 35.9594C173.727 36.8708 172.633 37.3265 171.266 37.3265C169.808 37.3265 168.805 36.7796 168.167 35.7771V41.3366H165.706V29.9442C165.706 28.8505 165.706 27.6657 165.615 26.4809H167.711L167.803 28.1214C168.623 26.8455 169.808 26.2075 171.448 26.2075C172.724 26.2075 173.818 26.6632 174.638 27.6657C175.641 28.7594 176.096 30.0354 176.096 31.6759ZM173.635 31.767C173.635 30.7645 173.362 29.8531 172.906 29.2151C172.36 28.486 171.722 28.2126 170.81 28.2126C170.172 28.2126 169.716 28.3949 169.17 28.7594C168.714 29.124 168.349 29.6708 168.258 30.3088C168.167 30.5822 168.167 30.8556 168.167 31.0379V32.7695C168.167 33.4986 168.441 34.2277 168.896 34.6834C169.352 35.2303 169.99 35.5037 170.81 35.5037C171.722 35.5037 172.451 35.1391 172.906 34.5012C173.362 33.772 173.635 32.8607 173.635 31.767Z" fill="#3E4265"/>
<path d="M190.132 32.9518C190.132 34.2277 189.676 35.2303 188.764 36.0505C187.762 36.8708 186.395 37.3265 184.663 37.3265C183.023 37.3265 181.747 37.0531 180.744 36.4151L181.291 34.41C182.385 35.048 183.478 35.3214 184.754 35.3214C185.666 35.3214 186.395 35.1391 186.851 34.6834C187.397 34.3189 187.58 33.7721 187.58 33.0429C187.58 32.405 187.397 31.9493 186.942 31.4936C186.486 31.129 185.848 30.6733 184.846 30.3999C182.202 29.3974 180.927 28.0303 180.927 26.2075C180.927 25.0227 181.382 24.0202 182.294 23.1999C183.205 22.4708 184.481 22.0151 186.03 22.0151C187.397 22.0151 188.582 22.2886 189.494 22.7442L188.856 24.6582C188.035 24.2025 187.033 24.0202 185.939 24.0202C185.119 24.0202 184.39 24.2025 183.934 24.6582C183.57 25.0227 183.296 25.4784 183.296 26.0252C183.296 26.5721 183.57 27.1189 184.025 27.4835C184.39 27.848 185.119 28.2126 186.213 28.5771C187.489 29.124 188.491 29.6708 189.038 30.3999C189.767 31.0379 190.132 31.9493 190.132 32.9518Z" fill="#3E4265"/>
<path d="M198.061 28.2126H195.418V33.4075C195.418 34.6834 195.873 35.4125 196.785 35.4125C197.24 35.4125 197.605 35.4125 197.878 35.3214L197.969 37.1442C197.514 37.3264 196.876 37.4176 196.056 37.4176C195.144 37.4176 194.324 37.1442 193.777 36.5973C193.23 36.0505 192.957 35.048 192.957 33.772V28.3948H191.407V26.6632H192.957V24.7493L195.326 24.0202V26.6632H197.969V28.2126H198.061Z" fill="#3E4265"/>
<path d="M210.091 31.6758C210.091 33.3163 209.635 34.6834 208.633 35.686C207.63 36.7796 206.263 37.3264 204.623 37.3264C202.982 37.3264 201.797 36.7796 200.795 35.7771C199.883 34.7746 199.337 33.4075 199.337 31.8581C199.337 30.2176 199.792 28.8505 200.795 27.848C201.797 26.8455 203.073 26.2986 204.714 26.2986C206.354 26.2986 207.63 26.8455 208.542 27.848C209.635 28.7594 210.091 30.1265 210.091 31.6758ZM207.63 31.767C207.63 30.7645 207.448 29.9442 206.992 29.2151C206.445 28.3948 205.716 27.9391 204.805 27.9391C203.802 27.9391 203.073 28.3948 202.618 29.2151C202.162 29.9442 201.98 30.7645 201.98 31.767C201.98 32.7695 202.162 33.5898 202.618 34.3189C203.164 35.1391 203.893 35.5948 204.805 35.5948C205.716 35.5948 206.445 35.1391 206.992 34.3189C207.357 33.5898 207.63 32.7695 207.63 31.767Z" fill="#3E4265"/>
<path d="M217.929 28.5771C217.655 28.5771 217.473 28.486 217.2 28.486C216.38 28.486 215.65 28.7594 215.195 29.3974C214.83 29.9442 214.557 30.6733 214.557 31.4936V37.053H212.096V29.7619C212.096 28.5771 212.096 27.3923 212.005 26.3898H214.101L214.192 28.3949H214.283C214.557 27.6657 214.921 27.1189 215.468 26.7544C216.015 26.3898 216.562 26.2075 217.2 26.2075C217.382 26.2075 217.655 26.2075 217.838 26.2075V28.5771H217.929Z" fill="#3E4265"/>
<path d="M228.774 31.3113C228.774 31.767 228.774 32.1315 228.683 32.4049H221.392C221.392 33.4075 221.757 34.2277 222.486 34.7746C223.124 35.2303 223.853 35.5037 224.855 35.5037C225.949 35.5037 226.952 35.3214 227.772 34.9568L228.136 36.5973C227.134 37.053 225.858 37.2353 224.491 37.2353C222.759 37.2353 221.483 36.7796 220.481 35.7771C219.478 34.7746 219.023 33.4986 219.023 31.8581C219.023 30.2176 219.478 28.9417 220.39 27.848C221.301 26.7543 222.577 26.1164 224.217 26.1164C225.767 26.1164 226.952 26.6632 227.772 27.848C228.41 28.8505 228.774 29.9442 228.774 31.3113ZM226.496 30.6733C226.496 29.9442 226.314 29.3974 226.04 28.8505C225.585 28.2126 224.947 27.848 224.126 27.848C223.306 27.848 222.668 28.2126 222.212 28.8505C221.848 29.3974 221.574 29.9442 221.483 30.6733H226.496Z" fill="#3E4265"/>
<path d="M145.838 13.3569C145.838 14.6329 145.474 15.6354 144.653 16.2734C143.924 16.9114 142.831 17.1848 141.463 17.1848C140.825 17.1848 140.188 17.1848 139.732 17.0936V9.9848C140.37 9.89366 141.008 9.80252 141.737 9.80252C143.013 9.80252 144.015 10.0759 144.653 10.6228C145.474 11.2607 145.838 12.1721 145.838 13.3569ZM144.653 13.3569C144.653 12.5367 144.38 11.8987 143.924 11.443C143.469 10.9873 142.831 10.805 141.919 10.805C141.555 10.805 141.19 10.805 140.917 10.8962V16.2734C141.099 16.2734 141.372 16.2734 141.737 16.2734C142.648 16.2734 143.377 16 143.833 15.5443C144.38 14.9974 144.653 14.2683 144.653 13.3569Z" fill="#3E4265"/>
<path d="M152.491 14.4506C152.491 15.2709 152.218 15.9088 151.762 16.4557C151.306 17.0025 150.577 17.2759 149.848 17.2759C149.028 17.2759 148.481 17.0025 147.934 16.5468C147.479 16 147.205 15.362 147.205 14.6329C147.205 13.8126 147.479 13.1747 147.934 12.6278C148.39 12.081 149.028 11.8987 149.848 11.8987C150.668 11.8987 151.306 12.1721 151.762 12.6278C152.309 12.9924 152.491 13.6304 152.491 14.4506ZM151.306 14.4506C151.306 13.9949 151.215 13.5392 151.033 13.1747C150.76 12.719 150.395 12.5367 149.939 12.5367C149.484 12.5367 149.119 12.719 148.846 13.1747C148.663 13.5392 148.572 13.9038 148.572 14.4506C148.572 14.9063 148.663 15.362 148.846 15.7265C149.119 16.1822 149.484 16.3645 149.939 16.3645C150.395 16.3645 150.76 16.1822 151.033 15.7265C151.215 15.362 151.306 14.9974 151.306 14.4506Z" fill="#3E4265"/>
<path d="M161.423 11.8987L159.782 17.0936H158.689L157.96 14.8152C157.777 14.2683 157.686 13.7215 157.504 13.1747C157.413 13.7215 157.23 14.2683 157.048 14.8152L156.319 17.0936H155.225L153.676 11.8987H154.861L155.499 14.3595C155.681 14.9063 155.772 15.5443 155.863 16C155.954 15.5443 156.137 14.9974 156.319 14.3595L157.048 11.8987H158.051L158.78 14.3595C158.962 14.9974 159.053 15.5443 159.235 16.0911C159.327 15.5443 159.418 14.9974 159.6 14.3595L160.238 11.8987H161.423Z" fill="#3E4265"/>
<path d="M167.62 17.0936H166.435V14.086C166.435 13.1746 166.071 12.7189 165.342 12.7189C164.977 12.7189 164.704 12.8101 164.522 13.0835C164.339 13.3569 164.157 13.6303 164.157 13.9949V17.0936H162.972V13.3569C162.972 12.9012 162.972 12.4455 162.972 11.8987H163.975L164.066 12.7189C164.248 12.4455 164.43 12.2633 164.704 12.081C165.068 11.8987 165.342 11.8076 165.797 11.8076C166.253 11.8076 166.709 11.9898 167.073 12.2633C167.529 12.6278 167.711 13.2658 167.711 13.9949V17.0936H167.62Z" fill="#3E4265"/>
<path d="M170.901 17.0936H169.716V9.52911H170.901V17.0936Z" fill="#3E4265"/>
<path d="M177.828 14.4506C177.828 15.2709 177.554 15.9088 177.099 16.4557C176.643 17.0025 175.914 17.2759 175.185 17.2759C174.365 17.2759 173.818 17.0025 173.271 16.5468C172.815 16 172.542 15.362 172.542 14.6329C172.542 13.8126 172.815 13.1747 173.271 12.6278C173.727 12.081 174.365 11.8987 175.185 11.8987C176.005 11.8987 176.643 12.1721 177.099 12.6278C177.646 12.9924 177.828 13.6304 177.828 14.4506ZM176.643 14.4506C176.643 13.9949 176.552 13.5392 176.37 13.1747C176.096 12.719 175.732 12.5367 175.276 12.5367C174.82 12.5367 174.456 12.719 174.182 13.1747C174 13.5392 173.909 13.9038 173.909 14.4506C173.909 14.9063 174 15.362 174.182 15.7265C174.456 16.1822 174.82 16.3645 175.276 16.3645C175.732 16.3645 176.096 16.1822 176.37 15.7265C176.552 15.362 176.643 14.9974 176.643 14.4506Z" fill="#3E4265"/>
<path d="M183.57 17.0936H182.476L182.385 16.4556C182.02 16.9113 181.473 17.1848 180.835 17.1848C180.289 17.1848 179.924 17.0025 179.651 16.7291C179.377 16.4556 179.195 16.0911 179.195 15.6354C179.195 14.9974 179.468 14.5417 180.015 14.1772C180.562 13.8126 181.291 13.7215 182.294 13.7215V13.6303C182.294 12.9012 181.929 12.6278 181.2 12.6278C180.653 12.6278 180.197 12.7189 179.833 12.9924L179.56 12.2633C180.015 11.9898 180.653 11.8076 181.382 11.8076C182.749 11.8076 183.478 12.5367 183.478 13.9949V15.9088C183.57 16.3645 183.57 16.8202 183.57 17.0936ZM182.385 15.2708V14.5417C181.109 14.5417 180.38 14.9063 180.38 15.6354C180.38 15.9088 180.471 16.0911 180.653 16.2734C180.835 16.4556 181.018 16.4556 181.2 16.4556C181.473 16.4556 181.747 16.3645 181.929 16.1822C182.111 15.9999 182.294 15.8177 182.385 15.5443C182.385 15.4531 182.385 15.362 182.385 15.2708Z" fill="#3E4265"/>
<path d="M190.405 17.0936H189.311L189.22 16.2734C188.856 16.9114 188.309 17.1848 187.489 17.1848C186.851 17.1848 186.304 17.0025 185.939 16.4557C185.484 16 185.301 15.362 185.301 14.5418C185.301 13.7215 185.575 12.9924 186.03 12.5367C186.486 12.081 187.033 11.8076 187.671 11.8076C188.4 11.8076 188.856 12.081 189.22 12.5367V9.52911H190.405V15.7266C190.314 16.1823 190.314 16.6379 190.405 17.0936ZM189.129 14.9063V13.9949C189.129 13.8126 189.129 13.7215 189.129 13.6304C189.038 13.3569 188.856 13.1747 188.673 12.9924C188.491 12.8101 188.218 12.719 187.853 12.719C187.397 12.719 187.033 12.9013 186.851 13.2658C186.577 13.6304 186.486 14.0861 186.486 14.5418C186.486 15.0886 186.577 15.4531 186.851 15.8177C187.124 16.1823 187.489 16.3645 187.853 16.3645C188.218 16.3645 188.582 16.1823 188.765 15.9088C189.038 15.5443 189.129 15.2709 189.129 14.9063Z" fill="#3E4265"/>
<path d="M200.521 14.4506C200.521 15.2709 200.248 15.9088 199.792 16.4557C199.337 17.0025 198.607 17.2759 197.878 17.2759C197.058 17.2759 196.511 17.0025 195.964 16.5468C195.509 16 195.235 15.362 195.235 14.6329C195.235 13.8126 195.509 13.1747 195.964 12.6278C196.42 12.081 197.058 11.8987 197.878 11.8987C198.699 11.8987 199.337 12.1721 199.792 12.6278C200.339 12.9924 200.521 13.6304 200.521 14.4506ZM199.337 14.4506C199.337 13.9949 199.245 13.5392 199.063 13.1747C198.79 12.719 198.425 12.5367 197.97 12.5367C197.514 12.5367 197.149 12.719 196.876 13.1747C196.694 13.5392 196.602 13.9038 196.602 14.4506C196.602 14.9063 196.694 15.362 196.876 15.7265C197.149 16.1822 197.514 16.3645 197.97 16.3645C198.425 16.3645 198.79 16.1822 199.063 15.7265C199.154 15.362 199.337 14.9974 199.337 14.4506Z" fill="#3E4265"/>
<path d="M206.901 17.0936H205.716V14.086C205.716 13.1746 205.352 12.7189 204.623 12.7189C204.258 12.7189 203.985 12.8101 203.802 13.0835C203.62 13.3569 203.438 13.6303 203.438 13.9949V17.0936H202.253V13.3569C202.253 12.9012 202.253 12.4455 202.253 11.8987H203.256L203.347 12.7189C203.529 12.4455 203.711 12.2633 203.985 12.081C204.349 11.8987 204.623 11.8076 205.078 11.8076C205.534 11.8076 205.99 11.9898 206.354 12.2633C206.81 12.6278 206.992 13.2658 206.992 13.9949V17.0936H206.901Z" fill="#3E4265"/>
<path d="M214.921 12.7189H213.645V15.2708C213.645 15.9088 213.919 16.2734 214.374 16.2734C214.557 16.2734 214.739 16.2734 214.921 16.1822V17.0936C214.648 17.1848 214.374 17.1848 214.01 17.1848C213.554 17.1848 213.19 17.0025 212.916 16.7291C212.643 16.4556 212.552 15.9999 212.552 15.362V12.7189H211.731V11.8076H212.552V10.8962L213.736 10.5316V11.8076H215.012L214.921 12.7189Z" fill="#3E4265"/>
<path d="M221.21 17.0936H220.025V14.1772C220.025 13.2658 219.661 12.8101 218.931 12.8101C218.385 12.8101 218.02 13.0835 217.838 13.6304C217.838 13.7215 217.747 13.9038 217.747 14.0861V17.1848H216.562V9.52911H217.747V12.6278C218.111 12.081 218.658 11.8076 219.387 11.8076C219.843 11.8076 220.299 11.9899 220.572 12.2633C220.937 12.6278 221.21 13.2658 221.21 13.9949V17.0936Z" fill="#3E4265"/>
<path d="M227.681 14.2683C227.681 14.4506 227.681 14.6329 227.681 14.8151H224.126C224.126 15.362 224.309 15.7265 224.673 15.9999C224.947 16.2734 225.402 16.3645 225.858 16.3645C226.405 16.3645 226.861 16.2734 227.316 16.0911L227.499 16.9113C226.952 17.0936 226.405 17.2759 225.676 17.2759C224.856 17.2759 224.218 17.0025 223.762 16.5468C223.306 16.0911 223.033 15.4531 223.033 14.6329C223.033 13.8126 223.215 13.1746 223.671 12.6278C224.126 12.081 224.764 11.8076 225.585 11.8076C226.314 11.8076 226.952 12.081 227.316 12.6278C227.499 13.0835 227.681 13.6303 227.681 14.2683ZM226.587 13.9038C226.587 13.5392 226.496 13.2658 226.314 12.9924C226.131 12.6278 225.767 12.5367 225.402 12.5367C225.038 12.5367 224.673 12.7189 224.491 12.9924C224.309 13.2658 224.218 13.5392 224.126 13.9038H226.587Z" fill="#3E4265"/>
</g>
</g>
</g>
<defs>
<clipPath id="clip0_20005128_14152">
<rect width="124" height="32.81" fill="white" transform="translate(104.8 8.79999)"/>
</clipPath>
<clipPath id="clip1_20005128_14152">
<rect width="124" height="32.81" fill="white" transform="translate(104.8 8.79999)"/>
</clipPath>
<clipPath id="clip2_20005128_14152">
<rect width="123.949" height="32.81" fill="white" transform="translate(104.826 8.79999)"/>
</clipPath>
</defs>
</svg>
